PathFileType	4	(X/Y/Z)	c:/Users/goper/Files/vsCode/490R/osim_files/C03/C03_Slow_03.trc
DataRate	CameraRate	NumFrames	NumMarkers	Units                	OrigDataRate	OrigDataStartFrame	OrigNumFrames
250.00	250.00	6	36	mm	250.0	1822	2429
                Frame#	Time	LPSIS			LASIS			LTH1			LTH2			LTH3			LTH4			LLFE			LMFE			LSH1			LSH2			LSH3			LSH4			LLMAL			LMMAL			LCAL			LMTP5			LTOE			LMTP1			RPSIS			RASIS			RTH1			RTH2			RTH3			RTH4			RLFE			RMFE			RSH1			RSH2			RSH3			RSH4			RLMAL			RMMAL			RCAL			RMTP1			RTOE			RMTP5		
		X1	Y1	Z1	X2	Y2	Z2	X3	Y3	Z3	X4	Y4	Z4	X5	Y5	Z5	X6	Y6	Z6	X7	Y7	Z7	X8	Y8	Z8	X9	Y9	Z9	X10	Y10	Z10	X11	Y11	Z11	X12	Y12	Z12	X13	Y13	Z13	X14	Y14	Z14	X15	Y15	Z15	X16	Y16	Z16	X17	Y17	Z17	X18	Y18	Z18	X19	Y19	Z19	X20	Y20	Z20	X21	Y21	Z21	X22	Y22	Z22	X23	Y23	Z23	X24	Y24	Z24	X25	Y25	Z25	X26	Y26	Z26	X27	Y27	Z27	X28	Y28	Z28	X29	Y29	Z29	X30	Y30	Z30	X31	Y31	Z31	X32	Y32	Z32	X33	Y33	Z33	X34	Y34	Z34	X35	Y35	Z35	X36	Y36	Z36

1822	7.28400	-2341.06274	1039.24890	318.63452	-2522.01440	983.40326	353.35330	-2402.01807	631.79675	397.25150	-2405.86548	571.08264	386.84537	-2476.84033	631.53918	383.30228	-2469.40796	570.53644	373.53885	-2422.73608	485.03934	366.95078	-2407.10400	486.17767	255.31392	-2356.88110	300.53662	367.81168	-2361.92822	254.62834	359.42038	-2417.74707	304.48755	368.25760	-2414.40552	257.26712	360.50604	-2402.02295	99.92984	323.58658	-2417.14355	113.36124	244.00221	-2332.98193	66.13023	291.69849	-2538.99438	52.18042	332.84204	-2566.80518	68.27658	277.73047	-2542.20630	55.95694	238.66216	-2342.09058	1026.70190	205.50668	-2511.17358	984.68170	147.98030	-2511.73096	604.63275	133.27521	0.00000	0.00000	0.00000	-2567.60181	628.42358	98.90069	-2597.46973	575.11920	101.74409	-2605.55054	506.40845	116.59701	-2624.68384	519.74585	231.13792	-2425.07935	415.15030	133.27927	-2398.07471	375.97583	135.04166	-2466.07983	374.99982	108.45196	-2434.35962	345.28079	113.21712	-2334.37158	227.22824	140.71622	-2361.58789	211.05780	214.82475	-2263.49121	235.11154	192.60683	-2419.27393	93.37015	194.31491	0.00000	0.00000	0.00000	-2372.38721	106.49117	99.12207
1823	7.28800	-2344.70532	1039.52197	318.11813	-2525.11060	983.13416	353.62888	-2404.15234	632.14111	397.10098	-2407.88965	571.43518	386.72214	-2480.02637	632.17474	383.53360	-2470.49170	570.44092	373.66556	-2424.30225	485.29941	366.67209	-2409.04126	486.35172	255.14284	-2357.81860	300.90076	367.66537	-2362.68994	255.00049	359.28412	-2418.83960	304.71768	368.06064	-2415.18213	257.38834	360.36856	-2402.19751	100.03006	323.47830	-2417.78247	113.46800	243.85016	-2332.99780	66.26932	291.62405	-2539.24243	52.25570	332.92688	-2567.13184	68.28678	277.53162	-2542.28052	55.86906	238.69373	-2346.02954	1027.07996	205.01408	-2515.41846	985.13226	148.09421	0.00000	0.00000	0.00000	0.00000	0.00000	0.00000	-2573.92456	629.66864	99.08930	-2603.98999	576.16296	102.96467	-2612.55859	507.92056	116.99406	-2631.00732	521.38153	231.51985	-2433.13696	413.54852	133.18810	-2407.16382	373.76437	135.05559	-2475.39819	373.92453	108.63163	-2444.42456	343.53873	113.10296	-2346.31836	223.93193	140.51135	-2373.96558	207.84076	214.51605	-2275.32690	229.94339	192.71979	-2434.06128	91.44212	192.84494	0.00000	0.00000	0.00000	-2386.70312	104.41772	97.95300
1824	7.29200	-2348.37183	1039.61768	317.67474	-2528.77148	983.19934	353.79559	-2406.06665	632.43835	396.77832	-2409.82617	571.83313	386.61307	-2482.15454	632.23517	383.67575	-2473.16064	570.58331	373.69391	-2425.91992	485.49777	366.54004	-2411.14307	486.53098	254.92502	-2358.92944	301.38052	367.50171	-2363.56445	255.38164	359.19608	-2419.79053	304.95544	367.83112	-2415.92627	257.49225	360.25140	-2402.32031	100.10281	323.38165	-2418.02686	113.53561	243.75406	-2333.01978	66.39310	291.58066	-2539.05835	52.16764	332.80243	-2567.11011	68.01391	277.47354	-2542.36426	55.82082	238.71210	-2349.99463	1027.39368	204.55165	-2519.62036	985.58362	148.26321	0.00000	0.00000	0.00000	0.00000	0.00000	0.00000	-2578.11719	629.87622	99.62528	-2610.58398	577.71777	103.21105	-2619.57324	509.40594	117.37386	-2637.18384	522.99158	231.88953	-2441.98071	411.41000	133.36649	-2416.54443	371.25412	135.13222	-2484.66577	372.83334	108.74394	-2454.13770	341.88345	113.21636	-2358.36548	220.50217	140.39104	-2386.44409	204.53217	214.21860	-2287.32300	224.70184	192.92757	-2449.10181	89.46084	191.68013	0.00000	0.00000	0.00000	-2401.02124	102.28582	96.80514
1825	7.29600	-2352.11084	1039.79797	317.30649	-2532.29858	983.13953	353.90253	-2408.43701	632.52039	396.66519	-2411.66626	572.12646	386.46445	-2484.22827	632.28394	383.79648	-2475.00537	570.69116	373.79080	-2427.58472	485.66821	366.40680	-2413.23950	486.66159	254.72556	-2359.77148	301.76138	367.26974	-2364.24854	255.78610	358.91400	-2420.74731	304.94458	367.80902	-2416.74634	257.66873	360.11539	-2402.50146	100.18705	323.33099	-2418.23901	113.59106	243.67627	-2333.07593	66.51984	291.57846	-2539.28857	52.15896	332.99545	-2567.23804	67.98109	277.46408	-2542.42944	55.78505	238.73576	-2354.08960	1027.76245	204.12404	-2523.66089	985.93280	148.37634	0.00000	0.00000	0.00000	0.00000	0.00000	0.00000	-2580.72412	631.50128	97.61954	-2617.10034	579.17316	103.50737	-2626.31812	510.75043	117.87683	-2643.20264	524.57263	232.27910	-2450.39966	409.28574	133.25108	-2425.54419	368.73752	135.03154	-2493.87866	371.58383	108.81060	-2465.26807	341.11520	113.76614	-2370.58862	217.00400	140.24315	-2399.04395	201.15596	213.93835	-2299.36646	219.47745	193.04817	-2463.81836	87.26928	190.25861	0.00000	0.00000	0.00000	-2415.41455	100.07850	95.71722
1826	7.30000	-2355.97876	1039.83008	316.78766	-2535.90576	983.17004	354.01318	-2410.50977	632.98145	396.09488	-2413.66821	572.45526	386.31845	-2486.31006	632.28882	383.85928	-2476.89478	570.81439	373.84360	-2429.15259	485.88947	366.16141	-2415.21826	486.84109	254.48473	-2360.72144	302.22946	367.06296	-2364.97192	256.18866	358.69522	-2421.83301	305.31879	367.51385	-2417.53979	257.88373	359.97330	-2402.28394	99.83667	322.02756	-2418.44067	113.68985	243.55583	-2333.11328	66.68087	291.52695	-2539.17163	52.16282	332.81589	-2567.35083	67.92795	277.43832	-2542.48901	55.75595	238.75307	-2357.96313	1028.20837	203.71329	-2527.96826	985.81140	148.75130	0.00000	0.00000	0.00000	0.00000	0.00000	0.00000	-2588.52637	632.15265	99.03802	-2623.48438	580.54352	103.74322	-2633.14209	512.13940	118.21738	-2648.89185	525.94183	232.64534	-2458.78076	407.14340	133.23386	-2434.88403	366.04697	135.00671	-2503.06494	370.29669	108.61727	-2475.47339	339.18344	113.95825	-2382.58374	213.72818	139.78577	-2411.75806	197.80133	213.65533	-2311.28418	214.30251	193.22200	-2478.63452	85.06473	188.80457	0.00000	0.00000	0.00000	-2429.77222	97.88017	94.60172
1827	7.30400	-2359.60571	1040.04553	316.55493	-2539.47778	983.13873	354.06174	-2412.43921	633.22955	395.70108	-2415.59790	572.87677	386.12100	-2488.36279	632.26093	383.95395	-2478.81982	570.89459	373.91748	-2430.87231	486.02115	365.91779	-2417.20166	486.97269	254.20352	-2361.69482	302.69775	366.76584	-2365.81250	256.59015	358.59442	-2422.84375	305.50668	367.31180	-2418.28857	258.10928	359.79910	-2402.44287	99.91817	321.94461	-2418.99146	113.63429	243.53476	-2333.21436	66.80158	291.51523	-2539.19922	52.12995	332.83511	-2567.45923	67.86156	277.43961	-2542.54053	55.71388	238.77623	-2362.04443	1028.53003	203.41182	-2532.04907	986.14331	148.93452	0.00000	0.00000	0.00000	0.00000	0.00000	0.00000	-2593.95581	633.00049	99.63230	-2629.62549	581.83405	104.02769	-2639.70312	513.41595	118.55816	-2654.60962	527.36591	233.01863	-2467.31396	404.82913	133.19237	-2444.24097	363.22815	134.90501	-2512.34961	368.86646	108.66385	-2484.83862	337.02753	113.90022	-2395.17847	209.82068	139.83954	-2424.90771	194.27400	213.47319	-2324.18506	208.91508	193.34622	-2493.36035	82.84508	187.46875	0.00000	0.00000	0.00000	-2444.23462	95.66543	93.47569
